<?xml version="1.0" standalone="no"?>
<!DOCTYPE svg PUBLIC "-//W3C//DTD SVG 20010904//EN"
 "http://www.w3.org/TR/2001/REC-SVG-20010904/DTD/svg10.dtd">
<svg version="1.0" xmlns="http://www.w3.org/2000/svg"
 width="200.000000pt" height="200.000000pt" viewBox="0 0 200.000000 200.000000"
 preserveAspectRatio="xMidYMid meet">
<metadata>
Created by potrace 1.11, written by Peter Selinger 2001-2013
</metadata>
<g transform="translate(0.000000,200.000000) scale(0.100000,-0.100000)"
fill="#000000" stroke="none">
<path d="M635 1477 c-99 -33 -173 -96 -216 -184 -31 -64 -34 -198 -5 -258 54
-112 159 -248 296 -383 129 -129 287 -268 295 -261 2 3 30 27 62 54 101 85
357 347 411 420 28 39 69 102 89 140 34 64 37 77 38 150 0 66 -5 90 -26 135
-56 120 -167 193 -299 196 -98 3 -165 -22 -231 -85 l-49 -47 -37 38 c-79 81
-225 119 -328 85z m196 -138 c24 -12 72 -50 107 -85 l64 -64 26 31 c77 92 151
138 230 144 117 7 219 -83 227 -201 8 -111 -156 -325 -442 -578 l-43 -38 -29
24 c-63 49 -300 297 -353 368 -85 113 -112 172 -105 231 19 156 178 240 318
168z"/>
</g>
</svg>
